<?xml version="1.0" standalone="no"?><!DOCTYPE svg PUBLIC "-//W3C//DTD SVG 1.1//EN" "http://www.w3.org/Graphics/SVG/1.1/DTD/svg11.dtd"><svg t="1739300320560" class="icon" viewBox="0 0 1024 1024" version="1.1" xmlns="http://www.w3.org/2000/svg" p-id="3525" xmlns:xlink="http://www.w3.org/1999/xlink" width="256" height="256"><path d="M898.816906 646.556579a52.988842 52.988842 0 0 1-35.163871-13.351076L721.03178 506.652202c-21.889543-19.431561-23.908526-52.91414-4.475941-74.803683 19.380396-21.86396 52.861952-23.934109 74.803683-4.475942l61.168128 54.285371a345.637018 345.637018 0 0 0-5.667069-39.458687 344.685343 344.685343 0 0 0-20.078291-65.256236 345.152994 345.152994 0 0 0-31.851429-59.304688c-12.419867-18.552541-26.573215-35.939537-42.123376-51.697429-15.783475-15.861246-32.990369-30.195719-50.998511-42.460044-18.552541-12.626575-38.242999-23.416316-58.527999-32.084743a339.676259 339.676259 0 0 0-64.479546-20.233833c-28.668946-5.924943-47.091528-33.973766-41.141003-62.61713 5.924943-28.668946 33.999348-47.040363 62.61713-41.141002 29.005614 5.977132 57.493435 14.930037 84.662215 26.547633 26.521027 11.333116 52.292993 25.434276 76.537164 41.943274 23.546276 16.042371 45.927005 34.698267 66.575278 55.423287a457.446523 457.446523 0 0 1 54.957682 67.403133c16.32685 24.348548 30.299073 50.351781 41.503253 77.261664 11.43647 27.116591 20.286022 55.863309 26.236548 85.205591 6.054903 29.989011 9.107425 60.753689 9.107425 91.467201 0 30.764678-3.053546 61.530378-9.107425 91.38943-3.751441 18.603707-17.129122 33.766035-35.111683 39.769772a53.18634 53.18634 0 0 1-16.821107 2.741438zM136.885624 693.260274c-22.278399 0-43.00342-14.153348-50.326199-36.45733-9.28855-28.255531-15.783475-57.364499-19.277042-86.550215-3.493567-28.565593-4.16588-57.933457-1.992378-87.197968a457.554994 457.554994 0 0 1 14.826684-85.49007c7.736195-28.255531 18.085914-55.553247 30.791283-81.246419 12.782118-26.004257 28.281113-51.076282 46.082548-74.467015a457.168184 457.168184 0 0 1 60.753689-65.35959c22.950711-20.311605 48.127114-38.371936 74.803684-53.664224 26.495444-15.31787 54.673204-28.0478 83.575463-37.750789 17.956977-6.002714 37.82856-1.992377 51.981909 10.530844a52.983725 52.983725 0 0 1 16.792454 50.326199l-38.242999 186.737008c-5.873778 28.643364-33.714869 47.221488-62.539358 41.269939-28.668946-5.873778-47.143717-33.870412-41.269939-62.539358l16.404621-80.134085a343.036797 343.036797 0 0 0-31.308053 24.633027 350.70443 350.70443 0 0 0-46.625923 50.145073c-13.635555 17.931395-25.538653 37.156248-35.344996 57.105603-9.755178 19.768229-17.698081 40.726563-23.64963 62.409398a352.21483 352.21483 0 0 0-11.358699 65.488527c-1.655709 22.200628-1.13894 44.633546 1.526773 66.471924 2.691295 22.329565 7.632841 44.555775 14.722306 66.161862 9.159614 27.815509-5.977132 57.752332-33.766034 66.886363-5.511527 1.811252-11.07422 2.691295-16.560164 2.691296zM505.392512 958.552405a459.740776 459.740776 0 0 1-57.700143-3.648086c-29.652344-3.778046-58.96802-10.505261-87.093591-20.027126-28.798906-9.650801-56.975643-22.356171-83.652212-37.725206a462.994889 462.994889 0 0 1-74.622558-53.664224 53.010331 53.010331 0 0 1-16.844643-50.300616 52.955072 52.955072 0 0 1 35.189454-39.692001l180.837648-60.235896c27.712155-9.315156 57.777915 5.743818 67.015299 33.533744 9.237385 27.76332-5.770424 57.777915-33.533744 67.0153l-77.598332 25.848715a348.763219 348.763219 0 0 0 37.000705 14.774494 343.401094 343.401094 0 0 0 66.678632 15.317871c22.51069 2.898003 45.151339 3.51915 67.170842 2.070148a346.56925 346.56925 0 0 0 65.721841-10.686386 346.545714 346.545714 0 0 0 62.539358-22.925129 350.730013 350.730013 0 0 0 56.975643-34.620495c18.138102-13.635555 34.879392-29.031197 49.653886-45.669133 19.431561-21.916149 52.887534-23.88192 74.803684-4.475941 21.889543 19.431561 23.908526 52.913117 4.475941 74.803683-19.48375 21.967314-41.503253 42.201148-65.385173 60.158125a456.881658 456.881658 0 0 1-74.544787 45.306882c-26.39209 12.626575-53.79316 22.691815-81.634252 29.936823-27.841092 7.348362-56.716746 12.032034-85.619006 13.921057-9.885138 0.673335-19.847024 0.983397-29.834492 0.983397z" p-id="3526" fill="#0dc319"></path></svg>