<?xml version="1.0" standalone="no"?><!DOCTYPE svg PUBLIC "-//W3C//DTD SVG 1.1//EN" "http://www.w3.org/Graphics/SVG/1.1/DTD/svg11.dtd"><svg t="1739300309770" class="icon" viewBox="0 0 1024 1024" version="1.1" xmlns="http://www.w3.org/2000/svg" p-id="2424" xmlns:xlink="http://www.w3.org/1999/xlink" width="256" height="256"><path d="M383.2 512H320v-64h127.2l16-16-130.4-129.6 45.6-45.6 130.4 130.4 249.6-249.6C688 91.2 604 64 512.8 64c-247.2 0-448 200.8-448 448 0 90.4 27.2 174.4 73.6 245.6L383.2 512zM115.2 872l45.6 45.6 63.2-63.2C301.6 920 403.2 960 512.8 960c247.2 0 448-200.8 448-448 0-110.4-40-211.2-106.4-289.6l58.4-58.4-45.6-45.6M704 640H545.6v193.6h-64V640h-44l108-108V576H704v64z m0-128H565.6l64-64H704v64z" p-id="2425" fill="#f6d12d"></path></svg>